<?xml version="1.0" encoding="utf-8"?>
<svg viewBox="0 0 500 500" xmlns="http://www.w3.org/2000/svg">
  <filter id="a" height="150%" width="150%" x="-5%" y="-5%">
    <feFlood flood-opacity=".5" result="floodFill"/>
    <feComposite in="floodFill" in2="SourceAlpha" operator="in" result="coloredAlpha"/>
    <feGaussianBlur in="coloredAlpha" result="blur" stdDeviation="8"/>
    <feComposite in="blur" in2="SourceGraphic" operator="out" result="maskedOffsetBlur"/>
    <feMerge>
      <feMergeNode in="maskedOffsetBlur"/>
      <feMergeNode in="SourceGraphic"/>
    </feMerge>
  </filter>
  <g filter="url(#a)" transform="matrix(0.639081, 0, 0, 0.573263, -117.598152, 5.325151)" style="">
    <path d="M261.849 660.647l-40.042-449.125h440l-40.086 449.054-180.184 49.954z" fill="#e44d26"/>
    <path d="M441.807 672.348l145.596-40.367 34.258-383.735H441.807z" fill="#f16529"/>
    <path d="M441.807 414.82h-72.888l-5.035-56.406h77.923V303.33H303.683l1.32 14.778 13.538 151.794h123.266zm0 143.056l-.242.066-61.346-16.566-3.922-43.93h-55.294l7.718 86.489 112.834 31.323.252-.071z" fill="#ebebeb"/>
    <path d="M262.745 89.47h27.992v27.656h25.606V89.47h27.993v83.75h-27.993v-28.044h-25.606v28.044h-27.99zm118.404 27.774h-24.642V89.47H433.8v27.774h-24.654v55.976H381.15v-55.976zm64.916-27.774h29.19l17.955 29.428 17.938-29.428h29.2v83.75h-27.882v-41.512l-19.259 29.778h-.481l-19.272-29.778v41.512h-27.39V89.47zm108.212 0h28v56.068h39.368v27.682h-67.368z"/>
    <path d="M441.617 414.82v55.082h67.83l-6.395 71.44-61.435 16.58v57.307l112.924-31.294.826-9.309 12.946-145.014 1.344-14.792h-14.842zm0-111.49v55.084H574.67l1.103-12.382 2.51-27.924 1.318-14.778z" fill="#fff"/>
  </g>
  <path d="M 155.222 116.037 L 550.232 116.037 L 550.232 465.567 L 155.222 465.567 L 155.222 116.037 Z" fill="none" style=""/>
  <path d="M 452.625 419.406 L 352.726 443.208 L 252.825 419.406 L 229.772 198.412 L 475.681 198.412 L 452.625 419.406 Z" fill="#2062af" style=""/>
  <path d="M 352.725 216.312 L 352.725 424.224 L 352.951 424.278 L 433.795 405.015 L 452.456 216.312 L 352.725 216.312 Z" fill="#3c9cd7" style=""/>
  <path d="M 296.029 165.943 L 296.029 152.79 L 317.716 152.79 L 317.716 138.397 L 279.763 138.397 L 279.763 179.077 L 317.716 179.077 L 317.716 165.943 L 296.029 165.943 Z M 356.731 152.79 L 371.894 152.79 L 371.894 138.397 L 333.936 138.397 L 333.936 152.79 C 339.014 157.283 341.663 159.434 349.007 165.933 C 344.714 165.933 333.936 165.947 333.936 165.945 L 333.936 179.077 L 371.894 179.077 L 371.894 165.943 L 356.731 152.79 Z M 410.529 152.79 L 425.691 152.79 L 425.691 138.397 L 387.732 138.397 L 387.732 152.79 C 392.81 157.283 395.46 159.434 402.804 165.933 C 398.512 165.933 387.732 165.947 387.732 165.945 L 387.732 179.077 L 425.692 179.077 L 425.692 165.943 L 410.529 152.79 Z" style=""/>
  <path d="M 352.636 271.569 L 281.135 297.919 L 283.506 324.007 L 352.636 297.853 L 426.173 270.032 L 429.221 243.345 L 352.636 271.569 Z" fill="#fff" style=""/>
  <linearGradient id="gradient-1" gradientUnits="userSpaceOnUse" x1="-825.508" y1="1338.301" x2="-825.508" y2="1419.102" gradientTransform="matrix(0.733422, 0, 0, -0.648981, 922.331055, 1192.538513)">
    <stop offset="0.387" stop-color="#d1d3d4" stop-opacity="0"/>
    <stop offset="1" stop-color="#d1d3d4"/>
  </linearGradient>
  <path d="M 281.134 297.919 L 283.505 324.007 L 352.635 297.853 L 352.635 271.569 L 281.134 297.919 Z" fill="url(#gradient-1)" style=""/>
  <linearGradient id="b" gradientUnits="userSpaceOnUse" x1="-724.552" y1="1378.602" x2="-724.552" y2="1462.591" gradientTransform="matrix(0.733422, 0, 0, -0.648981, 922.331055, 1192.538513)">
    <stop offset="0.387" stop-color="#d1d3d4" stop-opacity="0"/>
    <stop offset="1" stop-color="#d1d3d4"/>
  </linearGradient>
  <path d="M 429.221 243.346 L 352.636 271.569 L 352.636 297.853 L 426.173 270.032 L 429.221 243.346 Z" fill="url(#b)" style=""/>
  <linearGradient id="c" gradientUnits="userSpaceOnUse" x1="-874.103" y1="1302.263" x2="-680.039" y2="1302.263" gradientTransform="matrix(0.733422, 0, 0, -0.648981, 922.331055, 1192.538513)">
    <stop offset="0" stop-color="#e8e7e5"/>
    <stop offset="1" stop-color="#fff"/>
  </linearGradient>
  <path d="M 281.244 297.919 L 283.616 324.007 L 389.687 324.306 L 387.315 359.091 L 352.411 367.786 L 318.858 360.29 L 316.826 338.699 L 285.649 338.699 L 289.716 380.38 L 352.75 396.872 L 415.442 380.679 L 423.576 297.919 L 281.244 297.919 Z" fill="url(#c)" style=""/>
  <path d="M 352.636 297.919 L 281.135 297.919 L 283.506 324.007 L 352.636 324.203 L 352.636 297.919 Z M 352.636 367.702 L 352.297 367.786 L 318.749 360.29 L 316.716 338.7 L 285.541 338.7 L 289.606 380.381 L 352.636 396.872 L 352.636 367.702 Z" opacity=".05" style=""/>
  <linearGradient id="d" gradientUnits="userSpaceOnUse" x1="-883.032" y1="1442.031" x2="-672.341" y2="1442.031" gradientTransform="matrix(0.733422, 0, 0, -0.648981, 922.331055, 1192.538513)">
    <stop offset="0" stop-color="#e8e7e5"/>
    <stop offset="1" stop-color="#fff"/>
  </linearGradient>
  <path d="M 274.695 243.346 L 429.221 243.346 L 426.173 270.033 L 278.423 270.033 L 274.695 243.346 Z" fill="url(#d)" style=""/>
  <path d="M 352.636 243.346 L 274.695 243.346 L 278.423 270.033 L 352.636 270.033 L 352.636 243.346 Z" opacity=".05" style=""/>
</svg>